<?xml version="1.0"?>
<svg xmlns="http://www.w3.org/2000/svg" height="512px" viewBox="0 -9 512 512" width="512px" class=""><g><path d="m391.921875 288.015625c-2.992187-1.160156-4.960937-4.035156-4.960937-7.242187v-24.640626c-9.234376 6.371094-20.414063 10.113282-32.453126 10.113282-12.601562 0-23.679687-3.460938-32.734374-9.25v23.5c0 3.375-2.074219 6.402344-5.222657 7.621094l-10.359375 4.015624 7.386719 2.863282s16.546875 6.820312 27.375 23.976562c18.960937 4.40625 39.613281-1.164062 54.28125-16.75l8.914063-9.472656zm0 0" fill="#eebda4" data-original="#EEBDA4"/><path d="m344.191406 294.996094c-2.613281-1.011719-2.617187-4.710938 0-5.722656l2.972656-1.15625c3.148438-1.21875 5.222657-4.246094 5.222657-7.621094v-14.289063c-11.726563-.363281-22.070313-3.75-30.613281-9.210937v23.5c0 3.375-2.074219 6.402344-5.222657 7.621094l-10.359375 4.019531 7.386719 2.859375s16.546875 6.824218 27.375 23.976562c9.84375 2.289063 20.140625 1.878906 29.820313-1.214844-10.824219-16.257812-26.582032-22.761718-26.582032-22.761718zm0 0" fill="#e6b49e" data-original="#E6B49E" class=""/><path d="m473.1875 319.488281-69.996094-27.109375-9.019531 9.585938c-14.523437 15.433594-35.074219 20.792968-53.792969 16.097656 5.554688 8.457031 9.757813 19.515625 9.757813 33.640625v118.488281c0 9.203125-7.457031 16.660156-16.660157 16.660156h157.066407c8.027343 0 14.535156-6.507812 14.535156-14.535156v-103.359375c.003906-36.359375-31.890625-49.46875-31.890625-49.46875zm0 0" fill="#00aaf0" data-original="#00AAF0" class="" style="fill:#004B3D" data-old_color="#00aaf0"/><path d="m381.472656 470.191406v-118.488281c0-14.78125-4.605468-26.199219-10.542968-34.792969-9.898438 3.289063-20.488282 3.675782-30.550782 1.152344 5.554688 8.457031 9.757813 19.511719 9.757813 33.640625v118.488281c0 9.199219-7.457031 16.660156-16.660157 16.660156h31.332032c9.203125 0 16.664062-7.460937 16.664062-16.660156zm0 0" fill="#039add" data-original="#039ADD" class="active-path" style="fill:#003128" data-old_color="#039add"/><path d="m353.675781 68.527344c-43.082031 0-78.003906 34.925781-78.003906 78.003906v31.421875c5.214844-4.832031 14.375-7.460937 21.613281-6.492187v-3.886719c0-3.089844 2.640625-5.53125 5.699219-5.300781 30.15625 2.167968 59.105469-7.417969 82.3125-22.578126 2.164063-1.414062 5.035156-1.0625 6.796875.828126 19.839844 21.328124 17.976562 20.503906 17.976562 23.285156v7.632812c7.933594-1.1875 16.71875 1.265625 21.609376 5.8125v-30.722656c0-43.078125-34.921876-78.003906-78.003907-78.003906zm0 0" fill="#7e8292" data-original="#7E8292" class=""/><path d="m305.671875 146.53125c0-37.945312 27.101563-69.550781 63.003906-76.546875-4.855469-.945313-9.867187-1.457031-15-1.457031-43.082031 0-78.003906 34.925781-78.003906 78.003906v31.421875c5.214844-4.832031 14.375-7.460937 21.613281-6.492187v-3.886719c0-3.089844 2.640625-5.53125 5.699219-5.300781.898437.0625 1.792969.117187 2.6875.160156zm0 0" fill="#75798a" data-original="#75798A" class=""/><path d="m410.941406 168.824219v42.730469c0 .464843-.023437.921874-.035156 1.382812 15.121094 2.289062 26.964844-8.636719 26.964844-22.054688 0-13.445312-11.855469-24.316406-26.929688-22.058593zm0 0" fill="#eebda4" data-original="#EEBDA4"/><path d="m296.414062 211.554688v-42.710938c-13.164062-1.757812-26.929687 8.34375-26.929687 22.039062 0 13.402344 11.816406 24.347657 26.964844 22.054688-.011719-.460938-.035157-.917969-.035157-1.382812zm0 0" fill="#eebda4" data-original="#EEBDA4"/><path d="m431.941406 175.773438c-4.902344-5.269532-12.429687-8.230469-21-6.945313v42.730469c0 .460937-.023437.917968-.035156 1.378906 8.597656 1.304688 16.132812-1.671875 21.035156-6.941406zm0 0" fill="#e6b49e" data-original="#E6B49E" class=""/><path d="m296.414062 205.996094c-3.722656-4-5.929687-9.328125-5.929687-15.113282 0-5.601562 2.304687-10.601562 5.929687-14.4375v-7.605468c-13.164062-1.757813-26.929687 8.347656-26.929687 22.042968 0 13.402344 11.816406 24.347657 26.964844 22.054688-.011719-.460938-.035157-.921875-.035157-1.382812zm0 0" fill="#e6b49e" data-original="#E6B49E" class=""/><path d="m392.09375 137.910156c-1.761719-1.894531-4.628906-2.246094-6.796875-.828125-23.207031 15.15625-53.898437 24.742188-84.058594 22.574219-3.058593-.230469-5.699219 2.210938-5.699219 5.300781v46.601563c0 29.949218 23.46875 57.304687 58.96875 57.304687 31.597657 0 57.304688-25.707031 57.304688-57.304687v-50.363282c0-2.785156.121094-1.960937-19.71875-23.285156zm0 0" fill="#f5c5a9" data-original="#F5C5A9" class=""/><path d="m325.542969 211.554688v-52.589844c-8.035157 1-16.1875 1.273437-24.304688.691406-3.058593-.234375-5.695312 2.207031-5.695312 5.296875v46.601563c0 29.953124 23.464843 57.304687 58.964843 57.304687 5.007813 0 9.863282-.648437 14.496094-1.859375-26.664062-6.632812-43.460937-30.109375-43.460937-55.445312zm0 0" fill="#eebda4" data-original="#EEBDA4"/><path d="m131.890625 275.203125c26.214844 27.855469 69.113281 27.855469 95.328125 0l10.21875-10.855469-14.019531-5.429687c-3.425781-1.328125-5.683594-4.625-5.683594-8.300781v-28.246094c-10.585937 7.300781-23.402344 11.589844-37.203125 11.589844-14.449219 0-27.144531-3.96875-37.527344-10.601563v26.9375c0 3.867187-2.375 7.339844-5.984375 8.738281l-14.90625 5.777344zm0 0" fill="#eebda4" data-original="#EEBDA4"/><path d="m160.894531 275.203125c-4.675781-4.964844-2.835937-13.082031 3.523438-15.546875l1.605469-.621094c3.605468-1.398437 5.980468-4.867187 5.980468-8.738281v-16.816406c-10.945312-1.238281-20.710937-4.824219-29-10.121094v26.9375c0 3.871094-2.378906 7.339844-5.984375 8.738281l-14.90625 5.78125 9.777344 10.386719c16.796875 17.851563 40.445313 24.242187 62.164063 19.214844-12.175782-2.816407-23.746094-9.207031-33.160157-19.214844zm0 0" fill="#e6b49e" data-original="#E6B49E" class=""/><path d="m316.578125 294.996094-80.238281-31.074219-10.339844 10.984375c-25.53125 27.132812-67.3125 27.132812-92.84375.003906l-9.914062-10.535156-78.980469 30.621094s-36.558594 15.027344-36.558594 56.707031v118.484375c0 9.203125 7.457031 16.664062 16.660156 16.664062h312.113281c9.203126 0 16.660157-7.460937 16.660157-16.664062v-118.484375c0-41.675781-36.558594-56.707031-36.558594-56.707031zm0 0" fill="#00c3ff" data-original="#00C3FF" class="" style="fill:#57A695" data-old_color="#00c3ff"/><path d="m37.703125 470.191406v-133.488281c0-24.277344 12.398437-39.496094 22.757813-47.988281l-16.199219 6.28125s-36.558594 15.027344-36.558594 56.707031v118.484375c0 9.203125 7.457031 16.664062 16.660156 16.664062h30.003907c-9.203126 0-16.664063-7.460937-16.664063-16.660156zm0 0" fill="#00aaf0" data-original="#00AAF0" class="" style="fill:#004B3D" data-old_color="#00aaf0"/><path d="m179.578125 7.308594c-49.386719 0-89.421875 40.035156-89.421875 89.421875v36.015625c5.976562-5.539063 16.480469-8.550782 24.777344-7.441406v-4.457032c0-3.542968 3.027344-6.339844 6.53125-6.074218 34.574218 2.484374 67.757812-8.503907 94.359375-25.878907 2.484375-1.625 5.773437-1.21875 7.792969.949219 22.742187 24.445312 20.605468 23.5 20.605468 26.691406v8.75c9.097656-1.363281 19.167969 1.449219 24.773438 6.660156v-35.214843c0-49.386719-40.035156-89.421875-89.417969-89.421875zm0 0" fill="#7e8292" data-original="#7E8292" class=""/><path d="m120.160156 96.730469c0-44.273438 32.175782-81.027344 74.417969-88.160157-4.878906-.824218-9.890625-1.261718-15-1.261718-49.386719 0-89.421875 40.035156-89.421875 89.421875v36.015625c5.976562-5.539063 16.480469-8.550782 24.777344-7.441406v-4.457032c0-3.089844 2.304687-5.617187 5.226562-6.03125zm0 0" fill="#75798a" data-original="#75798A" class=""/><path d="m245.222656 122.285156v48.984375c0 .53125-.027344 1.054688-.039062 1.582031 17.332031 2.625 30.910156-9.898437 30.910156-25.28125-.003906-15.410156-13.589844-27.875-30.871094-25.285156zm0 0" fill="#eebda4" data-original="#EEBDA4"/><path d="m113.933594 171.269531v-48.964843c-15.089844-2.015626-30.871094 9.566406-30.871094 25.265624 0 15.363282 13.546875 27.910157 30.910156 25.28125-.011718-.527343-.039062-1.054687-.039062-1.582031zm0 0" fill="#eebda4" data-original="#EEBDA4"/><path d="m268.722656 129.65625c-5.625-5.664062-14-8.796875-23.5-7.371094v48.984375c0 .53125-.027344 1.054688-.042968 1.582031 9.53125 1.445313 17.917968-1.695312 23.542968-7.367187zm0 0" fill="#e6b49e" data-original="#E6B49E" class=""/><path d="m113.933594 165.488281c-4.609375-4.648437-7.367188-10.992187-7.367188-17.917969 0-6.710937 2.886719-12.664062 7.367188-17.128906v-8.136718c-15.089844-2.015626-30.871094 9.566406-30.871094 25.265624 0 15.363282 13.546875 27.910157 30.910156 25.28125-.011718-.527343-.039062-1.054687-.039062-1.582031zm0 0" fill="#e6b49e" data-original="#E6B49E" class=""/><path d="m223.617188 86.84375c-2.019532-2.167969-5.308594-2.574219-7.792969-.949219-26.601563 17.375-61.785157 28.363281-96.359375 25.878907-3.503906-.265626-6.53125 2.53125-6.53125 6.074218v53.421875c0 34.332031 26.902344 65.691407 67.59375 65.691407 36.226562 0 65.695312-29.46875 65.695312-65.691407v-57.734375c0-3.191406.136719-2.246094-22.605468-26.691406zm0 0" fill="#f5c5a9" data-original="#F5C5A9" class=""/><path d="m142.9375 171.269531v-59.804687c-7.785156.738281-15.644531.871094-23.472656.308594-3.503906-.265626-6.53125 2.535156-6.53125 6.074218v53.421875c0 34.332031 26.902344 65.691407 67.59375 65.691407 4.976562 0 9.816406-.574219 14.476562-1.625-31.863281-6.820313-52.066406-34.320313-52.066406-64.066407zm0 0" fill="#eebda4" data-original="#EEBDA4"/><path d="m476.203125 311.117188c-.261719-.117188-.433594-.191407-.5-.214844-.050781-.023438-.101563-.042969-.152344-.066406l-69.480469-26.90625h-.003906l-11.183594-4.332032c-.078124-.03125-.132812-.109375-.132812-.191406v-18.089844c12.757812-10.03125 21.644531-24.761718 24.019531-41.566406 15.734375-1.394531 27.378907-14.28125 27.378907-29.574219 0-7.066406-2.515626-13.824219-7.011719-19.117187v-24.910156c0-46.832032-38.097657-84.929688-84.929688-84.929688-34.839843 0-64.832031 21.09375-77.914062 51.171875v-15.46875c0-53.441406-43.480469-96.921875-96.921875-96.921875s-96.917969 43.480469-96.917969 96.921875v29.964844c-5.238281 5.898437-8.089844 13.164062-8.089844 20.875 0 17.261719 13.316407 31.921875 31.480469 33.058593 1.984375 15.644532 8.921875 30.160157 20.050781 41.59375 2.910157 2.988282 6.066407 5.679688 9.40625 8.09375v19.980469c0 .769531-.480469 1.46875-1.195312 1.746094-100.472657 38.949219-92.949219 35.964844-95.152344 37.054687-8.691406 4.304688-38.953125 22.203126-38.953125 62.605469v118.484375c0 13.324219 10.835938 24.164063 24.164062 24.164063h138.554688c4.140625 0 7.5-3.355469 7.5-7.5s-3.359375-7.5-7.5-7.5h-85.492188v-113.324219c0-4.144531-3.359374-7.5-7.503906-7.5-4.140625 0-7.5 3.355469-7.5 7.5v113.324219h-38.058594c-5.054687 0-9.164062-4.109375-9.164062-9.164063v-118.484375c0-24.828125 15.871094-42.917969 31.863281-49.753906l74.179688-28.753906c7.210937 7.664062 24.617187 29.5625 58.332031 29.558593 19.675781 0 38.101562-8.0625 51.882812-22.707031l6.878907-7.308593 65.058593 25.195312h.003907c5.097656 1.976562 31.019531 9.164062 39.753906 37.015625 1.699219 5.445313 2.480469 11.144531 2.480469 16.75v118.488281c0 5.054688-4.109375 9.164063-9.160156 9.164063h-38.058594v-113.324219c0-4.144531-3.359375-7.5-7.5-7.5-4.144532 0-7.5 3.355469-7.5 7.5v113.324219h-85.496094c-4.144531 0-7.5 3.355469-7.5 7.5 0 4.140625 3.355469 7.5 7.5 7.5h292.351562c12.09375 0 21.929688-9.835938 21.929688-21.929688v-41.582031c0-4.144531-3.359375-7.5-7.5-7.5-4.144531 0-7.5 3.355469-7.5 7.5v41.582031c0 3.820313-3.109375 6.929688-6.929688 6.929688h-31.949218v-100.203125c0-4.140625-3.359375-7.5-7.5-7.5-4.144532 0-7.503906 3.359375-7.503906 7.5v100.203125h-84.484376c1.113282-2.714844 1.804688-5.875 1.804688-9.164063v-118.484375c0-9.039062-1.539062-17.953125-4.914062-26.339843 16.550781-.316407 32.425781-7.308594 44.347656-19.976563l5.488281-5.835937 64.648437 25.035156c.351563.15625 2.140626.96875 4.609376 2.507812.082031.050782.167968.09375.25.140625 7.777343 4.90625 22.132812 17.011719 22.132812 39.511719v29.089844c0 4.144531 3.355469 7.503906 7.5 7.503906s7.5-3.359375 7.5-7.503906v-29.089844c0-38.539062-31.28125-53.816406-35.796875-55.820312zm-121.167969-51.039063h-.003906c-30.160156 0-51.027344-23.3125-51.027344-49.382813 0-9.144531 0-20.097656 0-43.890624 28.457032 1.5 58.890625-6.730469 84.117188-22.742188 9.460937 10.152344 14.488281 15.390625 16.296875 17.554688 0 57.425781.007812 47.992187-.015625 49.730468-.855469 28-22.75 48.730469-49.367188 48.730469zm-39.996094 19.046875c0 .257812-.152343.480469-.390624.574219l-8.742188 3.386719c-64.148438-24.84375-78.675781-30.464844-79.980469-30.972657-.542969-.210937-.894531-.722656-.894531-1.304687v-21.457032c14.976562-11.589843 25.34375-28.847656 27.871094-48.53125 4.34375-.273437 8.503906-1.316406 12.335937-3.101562-1.9375 3.851562-2.96875 8.074219-2.96875 12.453125 0 15.253906 11.601563 28.191406 27.402344 29.578125 2.402344 16.34375 11.238281 32.101562 25.367187 42.597656zm-61.519531-113.441406v-35.835938c21.113281 2.960938 21.085938 32.84375 0 35.835938zm35.480469 10.59375v28.214844c-7.054688-1.519532-11.730469-7.515626-11.730469-14.316407 0-6.632812 5.269531-12.050781 11.730469-13.898437zm130.417969 28.214844v-28.613282c7.070312 1.527344 11.730469 7.539063 11.730469 14.296875 0 6.777344-4.660157 12.789063-11.730469 14.316407zm-65.210938-128.273438c38.5625 0 69.933594 31.371094 69.933594 69.929688v15.40625c-1.539063-.414063-3.113281-.714844-4.722656-.890626 0-3.277343-.378907-4.816406-3.324219-8.414062-2.46875-3.007812-5.972656-6.589844-18.257812-19.769531-1.863282-2-4.25-3.285157-6.726563-3.808594-.023437-.007813-.046875-.007813-.074219-.011719-6.078125-1.242187-9.335937 1.828125-14.015625 4.621094-21.378906 12.753906-47.96875 20.148438-73.671875 18.445312-7.230468-.476562-12.234375 3.6875-13.832031 9.136719-1.8125.238281-4.105469.789063-5.238281 1.136719 0-16.996094.222656-13.785156.019531-16.589844.398437-38.21875 31.597656-69.191406 69.910156-69.191406zm-256.75 20.703125c0-45.171875 36.746094-81.921875 81.917969-81.921875 45.167969 0 81.917969 36.75 81.917969 81.921875v19.351563c-2.496094-.796876-5.097657-1.304688-7.773438-1.519532v-1.082031c.003907-6.554687-.882812-6.242187-24.613281-31.746094-4.519531-4.859375-11.832031-5.75-17.382812-2.121093-27.40625 17.902343-60.832032 26.894531-91.691407 24.679687-6.105469-.464844-9.246093 2.960937-10.246093 3.585937-2.015626 1.871094-3.410157 4.378907-4 6.898438-2.652344.289062-5.761719 1.023438-8.128907 1.859375zm-8.09375 50.839844c0-8.753907 7.378907-15.773438 15.867188-17.554688v35.476563c-9.367188-1.324219-15.867188-8.984375-15.867188-17.921875zm30.871094 23.699219c0-11.238282 0-41.75 0-51.914063 33.28125 2.03125 69.027344-7.59375 98.496094-26.539063 11.5625 12.417969 17.878906 18.988282 19.789062 21.359376 0 60.585937-.035156 58.546874-.035156 58.546874-.78125 31.542969-26.710937 56.738282-58.15625 56.738282-36.039063 0-60.09375-27.957032-60.09375-58.191406zm100.101563 98.496093c-10.917969 11.601563-25.464844 17.988281-40.960938 17.988281-18.429688 0-31.542969-7.980468-43.238281-20.410156l3.394531-1.316406c6.441406-2.5 10.773438-8.820312 10.773438-15.730469v-11.628906c9.25 3.796875 19.410156 5.792969 30.023437 5.792969 10.351563 0 20.71875-2.292969 29.703125-6.304688v12.460938c0 6.71875 4.207031 12.867187 10.476562 15.292968l2.53125.980469zm126.195312 39.941407c-7.523438-9.746094-16.375-15.792969-21.929688-18.949219 3.371094-2.921875 5.4375-7.230469 5.4375-11.824219v-8.53125c8.046876 3.089844 16.660157 4.484375 24.988282 4.484375h.007812c8.648438 0 17.121094-1.765625 24.710938-4.933594v9.257813c0 5.929687 3.355468 11.71875 10.515625 14.492187-13.234375 14.070313-28.605469 18.539063-43.730469 16.003907zm0 0" data-original="#000000" class="" style="fill:#000000"/></g> </svg>
