<?xml version="1.0"?>
<svg xmlns="http://www.w3.org/2000/svg" xmlns:xlink="http://www.w3.org/1999/xlink" version="1.1" id="Capa_1" x="0px" y="0px" viewBox="0 0 511 511" style="enable-background:new 0 0 511 511;" xml:space="preserve" width="512px" height="512px" class=""><g><g>
	<g>
		<g>
			<g>
				<polygon style="fill:#EFEEEE;" points="395.5,503.5 43.5,503.5 43.5,71.5 107.5,7.5 395.5,7.5     " data-original="#EFEEEE" class=""/>
				<polygon style="fill:#CECDCB;" points="43.5,71.5 43.5,503.5 83.5,503.5 83.5,31.5     " data-original="#CECDCB" class=""/>
				<polygon style="fill:#DEDEDC;" points="107.5,7.5 107.5,71.5 43.5,71.5     " data-original="#DEDEDC" class=""/>
			</g>
			<g>
				<circle style="fill:#97F4E0" cx="107.5" cy="199.5" r="24" data-original="#FAD677" class="active-path" data-old_color="#FAD677"/>
			</g>
			<rect x="83.5" y="103.5" style="fill:#57A695" width="272" height="40" data-original="#EE9F54" class="" data-old_color="#EE9F54"/>
		</g>
		<path style="fill:#004B3D" d="M463.392,372.796c-5.91-6.567-16.027-7.101-22.596-1.189l-68.717,61.845l-13.266-13.266    c-6.248-6.249-16.379-6.249-22.627,0c-6.249,6.248-6.249,16.379,0,22.627l24,24c5.939,5.94,15.773,6.198,22.017,0.579l80-72    C468.771,389.481,469.304,379.365,463.392,372.796z" data-original="#38D8C4" class="" data-old_color="#38D8C4"/>
	</g>
	<g>
		<path d="M107.5,168C90.131,168,76,182.131,76,199.5S90.131,231,107.5,231s31.5-14.131,31.5-31.5S124.869,168,107.5,168z     M107.5,216c-9.098,0-16.5-7.402-16.5-16.5s7.402-16.5,16.5-16.5s16.5,7.402,16.5,16.5S116.598,216,107.5,216z" data-original="#000000" class=""/>
		<path d="M171.5,192c-4.142,0-7.5,3.358-7.5,7.5s3.358,7.5,7.5,7.5h56c4.142,0,7.5-3.358,7.5-7.5s-3.358-7.5-7.5-7.5H171.5z" data-original="#000000" class=""/>
		<path d="M355.5,192h-96c-4.142,0-7.5,3.358-7.5,7.5s3.358,7.5,7.5,7.5h96c4.142,0,7.5-3.358,7.5-7.5S359.642,192,355.5,192z" data-original="#000000" class=""/>
		<path d="M171.5,232h-32c-4.142,0-7.5,3.358-7.5,7.5v32c0,4.142,3.358,7.5,7.5,7.5h32c4.142,0,7.5-3.358,7.5-7.5v-32    C179,235.358,175.642,232,171.5,232z M164,264h-17v-17h17V264z" data-original="#000000" class=""/>
		<path d="M259.5,248h-56c-4.142,0-7.5,3.358-7.5,7.5s3.358,7.5,7.5,7.5h56c4.142,0,7.5-3.358,7.5-7.5S263.642,248,259.5,248z" data-original="#000000" class=""/>
		<path d="M355.5,248h-64c-4.142,0-7.5,3.358-7.5,7.5s3.358,7.5,7.5,7.5h64c4.142,0,7.5-3.358,7.5-7.5S359.642,248,355.5,248z" data-original="#000000" class=""/>
		<path d="M171.5,296h-32c-4.142,0-7.5,3.358-7.5,7.5v32c0,4.142,3.358,7.5,7.5,7.5h32c4.142,0,7.5-3.358,7.5-7.5v-32    C179,299.358,175.642,296,171.5,296z M164,328h-17v-17h17V328z" data-original="#000000" class=""/>
		<path d="M203.5,327h40c4.142,0,7.5-3.358,7.5-7.5s-3.358-7.5-7.5-7.5h-40c-4.142,0-7.5,3.358-7.5,7.5S199.358,327,203.5,327z" data-original="#000000" class=""/>
		<path d="M363,319.5c0-4.142-3.358-7.5-7.5-7.5h-80c-4.142,0-7.5,3.358-7.5,7.5s3.358,7.5,7.5,7.5h80    C359.642,327,363,323.642,363,319.5z" data-original="#000000" class=""/>
		<path d="M171.5,360h-32c-4.142,0-7.5,3.358-7.5,7.5v32c0,4.142,3.358,7.5,7.5,7.5h32c4.142,0,7.5-3.358,7.5-7.5v-32    C179,363.358,175.642,360,171.5,360z M164,392h-17v-17h17V392z" data-original="#000000" class=""/>
		<path d="M259.5,376h-56c-4.142,0-7.5,3.358-7.5,7.5s3.358,7.5,7.5,7.5h56c4.142,0,7.5-3.358,7.5-7.5S263.642,376,259.5,376z" data-original="#000000" class=""/>
		<path d="M363,383.5c0-4.142-3.358-7.5-7.5-7.5h-64c-4.142,0-7.5,3.358-7.5,7.5s3.358,7.5,7.5,7.5h64    C359.642,391,363,387.642,363,383.5z" data-original="#000000" class=""/>
		<path d="M83.5,151h196c4.142,0,7.5-3.358,7.5-7.5s-3.358-7.5-7.5-7.5H91v-25h257v25h-31.971c-4.142,0-7.5,3.358-7.5,7.5    s3.358,7.5,7.5,7.5H355.5c4.142,0,7.5-3.358,7.5-7.5v-40c0-4.142-3.358-7.5-7.5-7.5h-272c-4.142,0-7.5,3.358-7.5,7.5v40    C76,147.642,79.358,151,83.5,151z" data-original="#000000" class=""/>
		<path d="M291.5,79h64c4.142,0,7.5-3.358,7.5-7.5s-3.358-7.5-7.5-7.5h-64c-4.142,0-7.5,3.358-7.5,7.5S287.358,79,291.5,79z" data-original="#000000" class=""/>
		<path d="M147.5,79h112c4.142,0,7.5-3.358,7.5-7.5s-3.358-7.5-7.5-7.5h-112c-4.142,0-7.5,3.358-7.5,7.5S143.358,79,147.5,79z" data-original="#000000" class=""/>
		<path d="M468.967,367.779c-8.668-9.631-23.557-10.415-33.188-1.747L403,395.534V7.5c0-4.142-3.358-7.5-7.5-7.5h-288    c-1.966,0-3.913,0.807-5.303,2.197l-64,64C36.806,67.586,36,69.535,36,71.5v432c0,4.142,3.358,7.5,7.5,7.5h352    c4.142,0,7.5-3.358,7.5-7.5v-44.734l64.221-57.799c4.666-4.199,7.417-9.964,7.747-16.232    C475.297,378.467,473.166,372.445,468.967,367.779z M100,25.606V64H61.606L100,25.606z M388,496H51V79h56.5    c4.142,0,7.5-3.358,7.5-7.5V15h273v394.034l-15.648,14.084l-8.234-8.234c-9.057-9.059-24.176-9.06-33.234-0.001    c-9.059,9.059-9.059,24.175,0,33.234l24,24c4.505,4.506,10.57,6.779,16.642,6.778c5.644,0,11.294-1.965,15.696-5.927l0.779-0.701    V496z M459.988,383.947c-0.119,2.267-1.114,4.353-2.802,5.871l-80,72c-3.306,2.974-8.552,2.837-11.697-0.308l-24-24    c-3.281-3.28-3.27-8.74,0-12.021c3.271-3.281,8.748-3.271,12.02,0l13.266,13.266c2.821,2.82,7.355,2.939,10.32,0.271    l68.717-61.845C451.314,372.232,460.378,376.522,459.988,383.947z" data-original="#000000" class=""/>
	</g>
</g></g> </svg>
