<?xml version="1.0"?>
<svg xmlns="http://www.w3.org/2000/svg" height="512px" viewBox="0 0 52 60" width="512px" class=""><g><g id="008---Male-Customer-Advisor" fill="none"><g id="Layer_3" transform="translate(1 1)"><path id="Shape" d="m33 35.23v6.77s-1 4-8 4-8-4-8-4v-6.77c.0343697.0357757.0711203.0691853.11.1 3.16 2.84 3.16 5.67 6.31 5.67h3.16c3.15 0 3.15-2.83 6.31-5.67.0388797-.0308147.0756303-.0642243.11-.1z" fill="#dfc49c" data-original="#DFC49C" class=""/><path id="Shape" d="m35.93 20c-.0186931-.2021663-.0521152-.4026989-.1-.6-.92-4.08-2.74-5.19-2.74-5.19-3.31-1.58-11.37-1.22-14.18-1.04-.702347.0238499-1.371431.3050076-1.88.79-1.3044221 1.4790049-2.2369329 3.2480328-2.72 5.16-.08197.2930192-.1487259.5900829-.2.89-.1134703.6570895-.1370196 1.3265616-.07 1.99.24 2.48.71 3.46.71 5.24 0 .23-.01.46-.01.69-.01.71-.06 1.39-.06 2.07-.0851089 2.0098367.7729547 3.9441782 2.32 5.23.0343697.0357757.0711203.0691853.11.1 3.16 2.84 3.16 5.67 6.31 5.67h3.16c3.15 0 3.15-2.83 6.31-5.67.0388797-.0308147.0756303-.0642243.11-.1 1.5470453-1.2858218 2.4051089-3.2201633 2.32-5.23 0-.68-.05-1.36-.06-2.07 0-.23-.01-.46-.01-.69 0-1.82.49-2.81.74-5.4.0549916-.6134886.0348424-1.2313973-.06-1.84zm-7.93 15c0 .5522847-.4477153 1-1 1h-4c-.5522847 0-1-.4477153-1-1v-2c0-.5522847.4477153-1 1-1h4c.5522847 0 1 .4477153 1 1z" fill="#ffe0b2" data-original="#FFE0B2" class=""/><path id="Shape" d="m35.93 20c-.0186931-.2021663-.0521152-.4026989-.1-.6-.92-4.08-2.74-5.19-2.74-5.19-2.357-1.125-7.114-1.265-10.677-1.189 2.9.068 5.942.361 7.677 1.189 0 0 1.82 1.11 2.74 5.19.0478848.1973011.0813069.3978337.1.6.0948424.6086027.1149916 1.2265114.06 1.84-.25 2.59-.74 3.58-.74 5.4 0 .23.01.46.01.69.01.71.06 1.39.06 2.07.0851089 2.0098367-.7729547 3.9441782-2.32 5.23-.0343697.0357757-.0711203.0691853-.11.1-3.16 2.84-3.16 5.67-6.31 5.67h3c3.15 0 3.15-2.83 6.31-5.67.0388797-.0308147.0756303-.0642243.11-.1 1.5470453-1.2858218 2.4051089-3.2201633 2.32-5.23 0-.68-.05-1.36-.06-2.07 0-.23-.01-.46-.01-.69 0-1.82.49-2.81.74-5.4.0549916-.6134886.0348424-1.2313973-.06-1.84z" fill="#dfc49c" data-original="#DFC49C" class=""/><path id="Shape" d="m49.99 53v3.99c.0070495.2664925-.0943299.5244411-.28094.7148212-.1866102.19038-.4424798.2968975-.70906.2951788h-48c-.26658015.0017187-.52244979-.1047988-.70905996-.2951788-.18661018-.1903801-.28798951-.4483287-.28094004-.7148212v-3.99c.3-6.1 3.43-7 3.43-7l13.56-4s1 4 8 4 8-4 8-4l13.56 4s3.13.9 3.43 7z" fill="#02a9f4" data-original="#02A9F4" class="" style="fill:#57A695" data-old_color="#02a9f4"/><path id="Shape" d="m46.56 46-13.56-4c-.0866243.2736327-.2065215.5355929-.357.78l10.917 3.22s3.13.9 3.43 7v3.99c.0070495.2664925-.0943299.5244411-.28094.7148212-.1866102.19038-.4424798.2968975-.70906.2951788h3c.2665802.0017187.5224498-.1047988.70906-.2951788.1866101-.1903801.2879895-.4483287.28094-.7148212v-3.99c-.3-6.1-3.43-7-3.43-7z" fill="#0377bc" data-original="#0377BC" class="active-path" style="fill:#004B3D" data-old_color="#0377bc"/><path id="Shape" d="m41 22v6c-.0032948 1.1032019-.8967981 1.9967052-2 2h-3.68c0-.68-.05-1.36-.06-2.07 0-.23-.01-.46-.01-.69 0-1.82.49-2.81.74-5.4.0549916-.6134886.0348424-1.2313973-.06-1.84h3.07c1.1032019.0032948 1.9967052.8967981 2 2z" fill="#3f51b5" data-original="#3F51B5" class="" style="fill:#004B3D" data-old_color="#3f51b5"/><path id="Shape" d="m39 20h-3c1.1032019.0032948 1.9967052.8967981 2 2v6c-.0032948 1.1032019-.8967981 1.9967052-2 2h3c1.1032019-.0032948 1.9967052-.8967981 2-2v-6c-.0032948-1.1032019-.8967981-1.9967052-2-2z" fill="#283593" data-original="#283593" class="" style="fill:#003128" data-old_color="#283593"/><path id="Shape" d="m14.75 27.24c0 .23-.01.46-.01.69-.01.71-.06 1.39-.06 2.07h-3.68c-1.10320187-.0032948-1.9967052-.8967981-2-2v-6c.0032948-1.1032019.89679813-1.9967052 2-2h3.07l.04.01c-.1134703.6570895-.1370196 1.3265616-.07 1.99.24 2.48.71 3.46.71 5.24z" fill="#3f51b5" data-original="#3F51B5" class="" style="fill:#004B3D" data-old_color="#3f51b5"/><rect id="Rectangle-path" fill="#7f8e94" height="4" rx="1" width="6" x="22" y="32" data-original="#7F8E94"/><path id="Shape" d="m39 15v5h-3.07c-.0186931-.2021663-.0521152-.4026989-.1-.6-.92-4.08-2.74-5.19-2.74-5.19-3.31-1.58-11.37-1.22-14.18-1.04-.702347.0238499-1.371431.3050076-1.88.79-1.3044221 1.4790049-2.2369329 3.2480328-2.72 5.16-.08197.2930192-.1487259.5900829-.2.89l-.04-.01h-3.07v-5s2-11 14-11 14 11 14 11z" fill="#91562d" data-original="#91562D" class=""/><path id="Shape" d="m25 4c-.521 0-1.016.028-1.5.067 10.663.874 12.5 10.933 12.5 10.933v5h3v-5s-2-11-14-11z" fill="#6d4122" data-original="#6D4122"/><path id="Shape" d="m39 13v2s-2-11-14-11-14 11-14 11v-2c0-7.73 6.27-13 14-13s14 5.27 14 13z" fill="#7f8e94" data-original="#7F8E94"/></g><path id="Shape" d="m2 60h48c.5320216.0021957 1.0426111-.2094833 1.4170197-.5874649.3744085-.3779815.5812288-.8905584.5739803-1.4225351v-4.039c-.332-6.737-4-7.868-4.148-7.91l-12.843-3.788v-5.6c1.3130312-1.2122965 2.124631-2.872241 2.275-4.653h2.725c1.6568542 0 3-1.3431458 3-3v-6c-.0052514-1.2667854-.8056491-2.3937454-2-2.816v-6.184c0-7.981-6.448-14-15-14s-15 6.019-15 14v6.184c-1.19435087.4222546-1.99474861 1.5492146-2 2.816v6c.00525139 1.2667854.80564913 2.3937454 2 2.816v1.184c0 2.209139 1.790861 4 4 4h2v5.253l-12.835 3.786c-.156.044-3.822 1.175-4.155 7.961v3.973c-.01159307.5346422.19313293 1.0513248.56777203 1.4329295.37463911.3816048.88746296.5958134 1.42222797.5940705zm11-43.9c1.2693006-6.0996538 6.7758771-10.3778402 13-10.1 6.2178068-.25803626 11.7130713 4.0113615 13 10.1v3.9h-1.236c-1-4.215-2.932-5.509-3.153-5.644-2.783-1.67-11.493-1.394-14.756-1.185-.9471996.0355606-1.847864.4198298-2.529 1.079-1.4661116 1.6369572-2.5018909 3.6129796-3.014 5.75h-1.312zm6 22.68c1.636 2.12 2.406 4.22 5.422 4.22 4.533 0 5.347.416 7.705-3.013.265-.385.553-.794.874-1.212v4.067c-1.608 4.255-12.427 4.219-14 0zm14.22-3.188c-3.12 2.801-3.211 5.408-5.643 5.408-4.319 0-4.29.42-6.056-2.146-.381-.554-.831-1.189-1.389-1.854h2.146c.3544126.6167513 1.0106732.997855 1.722 1h4c1.1045695 0 2-.8954305 2-2v-2c0-1.1045695-.8954305-2-2-2h-4c-1.1045695 0-2 .8954305-2 2v1h-3.8c-1.6-1.739-1.56-3.276-1.49-5.17.126409-1.4621293.0296351-2.934981-.287-4.368-.387-2.019-.63-3.4-.15-5.063.4293275-1.7546741 1.2771512-3.3792978 2.471-4.735.3367174-.3113825.775502-.4891721 1.234-.5 3.252-.209 10.624-.456 13.61.91 1.188.922 2.644 4.119 2.405 6.663-.23 2.413-.737 3.6-.737 5.5-.002 3.108.618 4.963-2.037 7.35zm-9.22.408v-2h4v2zm17-7c0 .5522847-.4477153 1-1 1h-2.7c-.153-4.287.317-3.2.682-7.069.0230248-.3097705.0290338-.620571.018-.931h2c.5522847 0 1 .4477153 1 1zm-2.676-19.016c-2.144-2.984-5.896-5.984-12.324-5.984s-10.18 3-12.324 5.984c3.724-10.679 20.924-10.664 24.648 0zm-27.324 13.016c0-.5522847.4477153-1 1-1h2.013c.0142306 1.2909002.1626961 2.5768192.443 3.837.2993476 1.3662563.3816894 2.7711283.244 4.163h-2.7c-.5522847 0-1-.4477153-1-1zm2 10v-1h1.725c.0835316 1.0612428.413253 2.0884124.963 3h-.688c-1.1045695 0-2-.8954305-2-2zm-8.275 14.959 12.724-3.754c.792 1.395 2.962 3.795 8.551 3.795s7.759-2.4 8.551-3.8l12.711 3.75c.1.034 2.478.9 2.733 6.045v4.005h-47.985v-3.951c.256-5.199 2.628-6.06 2.715-6.09z" fill="#000" data-original="#000" class="" data-old_color="#000" style="fill:#000000"/></g></g> </svg>
