<?xml version="1.0"?>
<svg xmlns="http://www.w3.org/2000/svg" height="512px" viewBox="-50 1 511 511.999" width="512px" class=""><g><path d="m130.519531 271.171875c25.824219 27.4375 68.074219 27.4375 93.898438 0l10.0625-10.691406-13.804688-5.347657c-3.378906-1.308593-5.601562-4.554687-5.601562-8.175781v-27.820312c-10.425781 7.191406-23.050781 11.414062-36.644531 11.414062-14.230469 0-26.734376-3.90625-36.960938-10.441406v26.535156c0 3.808594-2.34375 7.226563-5.894531 8.605469l-14.683594 5.691406zm0 0" fill="#eebda4" data-original="#EEBDA4" class=""/><path d="m160.523438 271.171875c-4.601563-4.890625-2.789063-12.882813 3.472656-15.308594l1.578125-.613281c3.554687-1.378906 5.894531-4.796875 5.894531-8.605469v-16.421875c-11.367188-1.054687-21.476562-4.664062-30-10.113281v26.535156c0 3.808594-2.34375 7.226563-5.894531 8.605469l-14.683594 5.691406 9.628906 10.230469c16.730469 17.777344 40.359375 24.019531 61.949219 18.757813-11.726562-2.855469-22.855469-9.097657-31.945312-18.757813zm0 0" fill="#e6b49e" data-original="#E6B49E"/><path d="m255.578125 428.6875c0-41.761719 33.855469-75.617188 75.617187-75.617188 5.9375 0 11.703126.707032 17.246094 2v-8.550781c0-41.046875-36.011718-55.851562-36.011718-55.851562l-79.03125-30.605469-10.183594 10.820312c-25.148438 26.722657-66.300782 26.722657-91.449219 0l-9.761719-10.371093-77.792968 30.15625s-36.007813 14.804687-36.007813 55.851562v94.707031c0 9.0625 7.347656 16.410157 16.410156 16.410157h236.714844c-3.699219-8.917969-5.75-18.691407-5.75-28.949219zm0 0" fill="#00c3ff" data-original="#00C3FF" class="" style="fill:#57A695" data-old_color="#00c3ff"/><path d="m38.203125 441.226562v-108.707031c0-25.804687 14.226563-41.234375 24.796875-49.136719l-18.789062 7.285157s-36.007813 14.804687-36.007813 55.851562v94.707031c0 9.0625 7.347656 16.410157 16.410156 16.410157h30c-9.0625 0-16.410156-7.347657-16.410156-16.410157zm0 0" fill="#00aaf0" data-original="#00AAF0" class="" style="fill:#004B3D" data-old_color="#00aaf0"/><path d="m177.488281 7.308594c-48.640625 0-88.074219 39.433594-88.074219 88.074218v35.476563c5.886719-5.457031 16.230469-8.421875 24.40625-7.328125v-4.390625c0-3.488281 2.980469-6.246094 6.433594-5.984375 34.054688 2.445312 66.738282-8.375 92.941406-25.492188 2.445313-1.597656 5.683594-1.199218 7.671876.9375 22.402343 24.078126 20.296874 23.144532 20.296874 26.289063v8.617187c8.960938-1.339843 18.878907 1.429688 24.402344 6.5625v-34.683593c-.003906-48.644531-39.433594-88.078125-88.078125-88.078125zm0 0" fill="#7e8292" data-original="#7E8292" class=""/><path d="m119.417969 95.382812c0-43.527343 31.578125-79.675781 73.074219-86.796874-4.875-.835938-9.886719-1.277344-15.003907-1.277344-48.640625 0-88.074219 39.429687-88.074219 88.074218v35.476563c5.886719-5.457031 16.230469-8.421875 24.40625-7.332031v-4.386719c0-3.203125 2.511719-5.78125 5.597657-5.980469zm0 0" fill="#75798a" data-original="#75798A"/><path d="m242.148438 120.554688v48.246093c0 .523438-.027344 1.039063-.039063 1.5625 17.070313 2.585938 30.445313-9.753906 30.445313-24.902343 0-15.179688-13.382813-27.457032-30.40625-24.90625zm0 0" fill="#eebda4" data-original="#EEBDA4" class=""/><path d="m112.835938 168.800781v-48.226562c-14.863282-1.984375-30.40625 9.421875-30.40625 24.886719 0 15.128906 13.34375 27.488281 30.445312 24.902343-.015625-.519531-.039062-1.039062-.039062-1.5625zm0 0" fill="#eebda4" data-original="#EEBDA4" class=""/><path d="m265.398438 127.917969c-5.539063-5.644531-13.835938-8.773438-23.25-7.363281v48.246093c0 .523438-.027344 1.039063-.039063 1.5625 9.441406 1.429688 17.746094-1.710937 23.289063-7.363281zm0 0" fill="#e6b49e" data-original="#E6B49E"/><path d="m112.835938 163.003906c-4.480469-4.566406-7.152344-10.777344-7.152344-17.542968 0-6.558594 2.800781-12.382813 7.152344-16.769532v-8.117187c-14.863282-1.984375-30.40625 9.421875-30.40625 24.886719 0 15.128906 13.34375 27.488281 30.445312 24.902343-.011719-.519531-.039062-1.039062-.039062-1.5625zm0 0" fill="#e6b49e" data-original="#E6B49E"/><path d="m220.867188 85.644531c-1.988282-2.132812-5.226563-2.53125-7.671876-.933593-26.203124 17.117187-60.859374 27.9375-94.910156 25.492187-3.457031-.261719-6.433594 2.492187-6.433594 5.984375v52.613281c0 33.820313 26.496094 64.707031 66.574219 64.707031 35.679688 0 64.707031-29.027343 64.707031-64.707031v-56.863281c0-3.144531.136719-2.210938-22.265624-26.292969zm0 0" fill="#f5c5a9" data-original="#F5C5A9" class=""/><path d="m141.851562 168.800781v-58.945312c-7.8125.761719-15.707031.914062-23.566406.347656-3.453125-.261719-6.433594 2.492187-6.433594 5.984375v52.613281c0 33.820313 26.496094 64.707031 66.578126 64.707031 4.976562 0 9.820312-.585937 14.476562-1.65625-31.25-6.800781-51.054688-33.820312-51.054688-63.050781zm0 0" fill="#eebda4" data-original="#EEBDA4" class=""/><path d="m406.816406 427.484375c0 42.429687-34.394531 76.824219-76.824218 76.824219-42.429688 0-76.828126-34.394532-76.828126-76.824219s34.398438-76.828125 76.828126-76.828125c42.429687 0 76.824218 34.398438 76.824218 76.828125zm0 0" fill="#f77c7c" data-original="#F77C7C" class="active-path" data-old_color="#f77c7c" style="fill:#7CCAF7"/><path d="m281.164062 427.484375c0-37.648437 27.085938-68.945313 62.828126-75.53125-4.542969-.835937-9.21875-1.296875-14.003907-1.296875-42.429687 0-76.824219 34.398438-76.824219 76.828125s34.394532 76.824219 76.824219 76.824219c4.785157 0 9.460938-.460938 14.003907-1.296875-35.742188-6.582031-62.828126-37.882813-62.828126-75.527344zm0 0" fill="#f25c5c" data-original="#F25C5C" class="" data-old_color="#f25c5c" style="fill:#0A6284"/><path d="m370.992188 415.152344h-26.386719c-1.261719 0-2.285157-1.023438-2.285157-2.285156v-26.386719c0-2.132813-1.730468-3.859375-3.863281-3.859375h-16.933593c-2.132813 0-3.863282 1.726562-3.863282 3.859375v26.386719c0 1.261718-1.023437 2.285156-2.285156 2.285156h-26.386719c-2.132812 0-3.859375 1.730468-3.859375 3.863281v16.933594c0 2.132812 1.726563 3.863281 3.859375 3.863281h26.386719c1.261719 0 2.285156 1.023438 2.285156 2.285156v26.382813c0 2.136719 1.730469 3.863281 3.863282 3.863281h16.933593c2.132813 0 3.863281-1.726562 3.863281-3.863281v-26.382813c0-1.261718 1.023438-2.285156 2.285157-2.285156h26.386719c2.132812 0 3.859374-1.730469 3.859374-3.863281v-16.933594c0-2.132813-1.726562-3.863281-3.859374-3.863281zm0 0" fill="#e4eaf8" data-original="#E4EAF8" class=""/><g fill="#d8dce5"><path d="m336.113281 412.867188v-26.386719c0-1.871094 1.332031-3.429688 3.101563-3.785157-.242188-.046874-.496094-.074218-.757813-.074218h-16.933593c-2.132813 0-3.859376 1.726562-3.859376 3.859375v26.386719c0 1.261718-1.027343 2.285156-2.289062 2.285156h18.449219c1.261719 0 2.289062-1.023438 2.289062-2.285156zm0 0" data-original="#D8DCE5" class=""/><path d="m336.113281 468.484375v-26.386719c0-1.261718-1.027343-2.285156-2.289062-2.285156h-18.449219c1.261719 0 2.285156 1.023438 2.285156 2.285156v26.386719c0 2.132813 1.730469 3.859375 3.863282 3.859375h16.933593c.261719 0 .511719-.027344.757813-.074219-1.769532-.351562-3.101563-1.914062-3.101563-3.785156zm0 0" data-original="#D8DCE5" class=""/><path d="m303.578125 435.949219v-16.933594c0-2.132813 1.726563-3.863281 3.859375-3.863281h-18.449219c-2.132812 0-3.863281 1.730468-3.863281 3.863281v16.933594c0 2.132812 1.730469 3.863281 3.863281 3.863281h18.449219c-2.132812 0-3.859375-1.730469-3.859375-3.863281zm0 0" data-original="#D8DCE5" class=""/></g><path d="m321.320312 480.035156h16.933594c6.265625 0 11.363282-5.097656 11.363282-11.363281v-21.167969h21.171874c6.265626 0 11.363282-5.097656 11.363282-11.363281v-16.933594c0-6.265625-5.097656-11.363281-11.363282-11.363281h-21.171874v-21.171875c0-6.265625-5.097657-11.363281-11.363282-11.363281h-16.933594c-6.265624 0-11.359374 5.097656-11.359374 11.363281v21.171875h-21.171876c-6.265624 0-11.363281 5.097656-11.363281 11.363281v16.933594c0 6.265625 5.097657 11.363281 11.363281 11.363281h21.171876v21.171875c0 6.265625 5.09375 11.359375 11.359374 11.359375zm-28.894531-47.535156v-9.65625h22.746094c5.398437 0 9.789063-4.390625 9.789063-9.785156v-22.746094h9.65625v22.746094c0 5.394531 4.390624 9.785156 9.789062 9.785156h22.746094v9.65625h-22.746094c-5.398438 0-9.789062 4.390625-9.789062 9.789062v22.746094h-9.65625v-22.746094c0-5.398437-4.390626-9.789062-9.789063-9.789062zm0 0" data-original="#000000" class="" style="fill:#000000"/><path d="m132.660156 248.445312-91.363281 35.417969c-.046875.019531-.09375.039063-.140625.058594-1.660156.683594-40.65625 17.238281-40.65625 62.789063v94.101562c0 13.1875 10.726562 23.914062 23.910156 23.914062h135.28125c4.140625 0 7.5-3.359374 7.5-7.5 0-4.144531-3.359375-7.503906-7.5-7.503906h-82.902344v-88.902344c0-4.140624-3.359374-7.5-7.5-7.5-4.144531 0-7.5 3.359376-7.5 7.5v88.902344h-37.378906c-4.914062 0-8.910156-3.996094-8.910156-8.910156v-94.101562c0-22.695313 14.589844-41.75 31.316406-48.898438 16.722656-6.484375 58.828125-22.804688 72.984375-28.292969 6.789063 7.207031 24.140625 29.09375 57.488281 29.09375 19.414063 0 37.589844-7.957031 51.183594-22.402343l6.722656-7.144532 74.207032 28.738282c8.714844 3.828124 30.042968 18.058593 31.277344 46.25-3.257813-.425782-7.375-.707032-10.890626-.707032-46.5 0-84.328124 37.828125-84.328124 84.324219 0 7.382813.953124 14.808594 2.917968 22.050781h-53.6875c-4.144531 0-7.5 3.359375-7.5 7.5 0 4.144532 3.355469 7.5 7.5 7.5h59.367188c13.742187 27.972656 42.519531 47.277344 75.730468 47.277344 19.144532 0 37.886719-6.597656 52.78125-18.570312 14.660157-11.789063 25.070313-28.324219 29.320313-46.554688.941406-4.03125-1.566406-8.066406-5.601563-9.007812-4.03125-.9375-8.066406 1.566406-9.007812 5.601562-7.347656 31.519531-35.101562 53.53125-67.492188 53.53125-38.238281 0-69.328124-31.113281-69.328124-69.328125 0-38.226563 31.101562-69.324219 69.328124-69.324219 32.019532 0 60.070313 21.691406 67.492188 53.527344.941406 4.03125 4.976562 6.542969 9.007812 5.601562 4.035157-.941406 6.542969-4.972656 5.601563-9.007812-6.339844-27.203125-26.59375-51.429688-56.152344-60.996094 0-30.46875-18.480469-54.394531-40.640625-63.542968 0 0-.011718-.003907-.011718-.007813-.050782-.019531-.101563-.039063-.148438-.058594l-79.03125-30.605469c-.003906-.003906-.003906-.003906-.007812-.003906l-12.71875-4.925781c-.484376-.1875-.808594-.664063-.808594-1.179687v-21.078126c14.730468-11.417968 24.929687-28.386718 27.4375-47.75 17.886718-1.164062 31.027344-15.625 31.027344-32.667968 0-7.917969-2.867188-15.476563-7.972657-21.355469v-28.722656c0-52.699219-42.875-95.574219-95.574219-95.574219-52.699218 0-95.574218 42.875-95.574218 95.574219v29.472656c-5.164063 5.824219-7.972656 12.996094-7.972656 20.605469 0 17.023437 13.117187 31.5 31.019531 32.667968 2.453125 19.113282 12.523437 36.960938 29.003906 48.886719v19.625c0 .722657-.433594 1.351563-1.105469 1.613281zm117.769532-85.269531v-35.042969c8.925781 1.308594 15.40625 8.683594 15.40625 17.519532 0 8.601562-6.203126 16.152344-15.40625 17.523437zm-153.714844-67.601562c0-44.429688 36.144531-80.574219 80.574218-80.574219 44.425782 0 80.570313 36.144531 80.570313 80.574219v18.90625c-2.386719-.75-4.875-1.234375-7.429687-1.445313 0-4.828125.097656-5.941406-6.085938-12.796875-3.296875-3.660156-8.199219-8.773437-18.1875-19.507812-1.402344-1.507813-3.078125-2.632813-4.882812-3.355469-7.175782-2.863281-12.222657 1.183594-14.929688 2.875-25.839844 16.136719-57.589844 24.832031-87.695312 22.664062-6.714844-.511718-12.621094 4.03125-14.128907 10.335938-2.523437.277344-5.515625.976562-7.804687 1.777344zm-7.972656 50.078125c0-8.535156 7.179687-15.375 15.40625-17.15625v34.679687c-9.179688-1.363281-15.40625-8.894531-15.40625-17.523437zm30.40625 23.339844c0-11.128907 0-41.449219 0-51.011719 32.75 1.96875 67.890624-7.496094 96.882812-26.113281 11.246094 12.082031 17.472656 18.550781 19.398438 20.933593 0 65.605469.011718 54.949219-.023438 57.066407-1.050781 33.339843-27.621094 56.328124-57.179688 56.328124h-.003906c-35.445312 0-59.074218-27.492187-59.074218-57.203124zm88.21875 66.054687v12.101563c0 6.664062 4.179687 12.761718 10.394531 15.167968l2.339843.90625-2.550781 2.710938c-10.730469 11.402344-25.027343 17.679687-40.261719 17.679687-17.921874.003907-30.878906-7.707031-42.394531-19.945312l3.1875-1.234375c6.390625-2.480469 10.683594-8.746094 10.683594-15.601563v-11.285156c18.640625 7.605469 40.265625 7.628906 58.601563-.5zm0 0" data-original="#000000" class="" style="fill:#000000"/></g> </svg>
