<?xml version="1.0"?>
<svg xmlns="http://www.w3.org/2000/svg" xmlns:xlink="http://www.w3.org/1999/xlink" version="1.1" id="Capa_1" x="0px" y="0px" viewBox="0 0 512 512" style="enable-background:new 0 0 512 512;" xml:space="preserve" width="512px" height="512px" class=""><g><rect x="307.2" y="93.867" style="fill:#87CDE8;" width="51.2" height="42.667" data-original="#87CDE8" class=""/><path style="fill:#90CEC3" d="M452.267,375.467h17.067V179.2c-0.026-23.552-19.115-42.641-42.667-42.667H187.733V256h25.6v17.067  H76.8V256h25.6V136.533H85.333c-23.552,0.026-42.641,19.115-42.667,42.667v196.267H452.267z M358.4,196.267h51.2v51.2h-51.2V196.267  z M358.4,281.6h51.2v51.2h-51.2V281.6z M273.067,196.267h51.2v51.2h-51.2V196.267z M273.067,281.6h51.2v51.2h-51.2V281.6z   M162.133,290.133h34.133V307.2h-34.133V290.133z M162.133,324.267h34.133v17.067h-34.133V324.267z M93.867,290.133H128V307.2  H93.867V290.133z M93.867,324.267H128v17.067H93.867V324.267z" data-original="#195C85" class="active-path" data-old_color="#195C85"/><path style="fill:#D2D2D2" d="M435.2,93.867V8.533H221.867v85.333H435.2z M401.067,34.133h17.067v34.133h-17.067V34.133z" data-original="#F49E21" class="" data-old_color="#F49E21"/><polygon style="fill:#FFFFFF" points="102.4,256 110.933,256 179.2,256 187.733,256 187.733,145.067 187.733,136.533   187.733,59.733 102.4,59.733 102.4,136.533 102.4,145.067 " data-original="#FDBD40" class="" data-old_color="#FDBD40"/><polygon style="fill:#87CDE8;" points="110.933,256 102.4,256 76.8,256 76.8,273.067 102.4,273.067 187.733,273.067   213.333,273.067 213.333,256 187.733,256 179.2,256 " data-original="#87CDE8" class=""/><g>
	<rect x="358.4" y="196.267" style="fill:#B4FFE8" width="51.2" height="51.2" data-original="#FFD782" class="" data-old_color="#FFD782"/>
	<rect x="273.067" y="196.267" style="fill:#B4FFE8" width="51.2" height="51.2" data-original="#FFD782" class="" data-old_color="#FFD782"/>
	<rect x="358.4" y="281.6" style="fill:#B4FFE8" width="51.2" height="51.2" data-original="#FFD782" class="" data-old_color="#FFD782"/>
	<rect x="273.067" y="281.6" style="fill:#B4FFE8" width="51.2" height="51.2" data-original="#FFD782" class="" data-old_color="#FFD782"/>
</g><rect x="401.067" y="34.133" style="fill:#FFFFFF;" width="17.067" height="34.133" data-original="#FFFFFF" class=""/><g>
	<rect x="93.867" y="290.133" style="fill:#B4FFE8" width="34.133" height="17.067" data-original="#FFD782" class="" data-old_color="#FFD782"/>
	<rect x="162.133" y="290.133" style="fill:#B4FFE8" width="34.133" height="17.067" data-original="#FFD782" class="" data-old_color="#FFD782"/>
	<rect x="93.867" y="324.267" style="fill:#B4FFE8" width="34.133" height="17.067" data-original="#FFD782" class="" data-old_color="#FFD782"/>
	<rect x="162.133" y="324.267" style="fill:#B4FFE8" width="34.133" height="17.067" data-original="#FFD782" class="" data-old_color="#FFD782"/>
</g><path style="fill:#004B3D" d="M503.467,375.467H8.533C3.823,375.467,0,379.29,0,384v119.467C0,508.177,3.823,512,8.533,512h494.933  c4.71,0,8.533-3.823,8.533-8.533V384C512,379.29,508.177,375.467,503.467,375.467z M256,418.133c14.14,0,25.6,11.46,25.6,25.6  c0,14.14-11.46,25.6-25.6,25.6c-14.14,0-25.6-11.46-25.6-25.6C230.4,429.594,241.86,418.133,256,418.133z" data-original="#87CEE9" class="" data-old_color="#87CEE9"/><circle style="fill:#FFFFFF;" cx="256" cy="443.733" r="25.6" data-original="#FFFFFF" class=""/><path d="M503.467,375.467h-34.133V179.2c-0.026-23.552-19.115-42.641-42.667-42.667h-59.733V102.4H435.2  c4.71,0,8.533-3.823,8.533-8.533V8.533c0-4.71-3.823-8.533-8.533-8.533H221.867c-4.71,0-8.533,3.823-8.533,8.533v85.333  c0,4.71,3.823,8.533,8.533,8.533h76.8v34.133h-102.4v-76.8c0-4.71-3.823-8.533-8.533-8.533H102.4c-4.71,0-8.533,3.823-8.533,8.533  v76.8h-8.533c-23.552,0.026-42.641,19.115-42.667,42.667v196.267H8.533C3.823,375.467,0,379.29,0,384v119.467  C0,508.177,3.823,512,8.533,512h494.933c4.71,0,8.533-3.823,8.533-8.533V384C512,379.29,508.177,375.467,503.467,375.467z   M230.4,85.333V17.067h196.267v68.267H230.4z M349.867,102.4v34.133h-34.133V102.4H349.867z M110.933,68.267H179.2V256h-68.267  V68.267z M59.733,179.2c0-14.14,11.46-25.6,25.6-25.6h8.533V256H76.8v17.067h136.533V256h-17.067V153.6h230.4  c14.14,0,25.6,11.46,25.6,25.6v196.267H59.733V179.2z M494.933,494.933H17.067v-102.4h477.867V494.933z" data-original="#000000" class="" style="fill:#000000"/><path d="M256,477.867c18.85,0,34.133-15.283,34.133-34.133S274.85,409.6,256,409.6c-18.85,0-34.133,15.283-34.133,34.133  S237.15,477.867,256,477.867z M256,426.667c9.429,0,17.067,7.637,17.067,17.067c0,9.429-7.637,17.067-17.067,17.067  c-9.429,0-17.067-7.637-17.067-17.067C238.933,434.304,246.571,426.667,256,426.667z" data-original="#000000" class="" style="fill:#000000"/><path d="M409.6,187.733h-51.2c-4.71,0-8.533,3.823-8.533,8.533v51.2c0,4.71,3.823,8.533,8.533,8.533h51.2  c4.71,0,8.533-3.823,8.533-8.533v-51.2C418.133,191.556,414.31,187.733,409.6,187.733z M401.067,238.933h-34.133V204.8h34.133  V238.933z" data-original="#000000" class="" style="fill:#000000"/><path d="M324.267,187.733h-51.2c-4.71,0-8.533,3.823-8.533,8.533v51.2c0,4.71,3.823,8.533,8.533,8.533h51.2  c4.71,0,8.533-3.823,8.533-8.533v-51.2C332.8,191.556,328.977,187.733,324.267,187.733z M315.733,238.933H281.6V204.8h34.133  V238.933z" data-original="#000000" class="" style="fill:#000000"/><path d="M409.6,273.067h-51.2c-4.71,0-8.533,3.823-8.533,8.533v51.2c0,4.71,3.823,8.533,8.533,8.533h51.2  c4.71,0,8.533-3.823,8.533-8.533v-51.2C418.133,276.89,414.31,273.067,409.6,273.067z M401.067,324.267h-34.133v-34.133h34.133  V324.267z" data-original="#000000" class="" style="fill:#000000"/><path d="M324.267,273.067h-51.2c-4.71,0-8.533,3.823-8.533,8.533v51.2c0,4.71,3.823,8.533,8.533,8.533h51.2  c4.71,0,8.533-3.823,8.533-8.533v-51.2C332.8,276.89,328.977,273.067,324.267,273.067z M315.733,324.267H281.6v-34.133h34.133  V324.267z" data-original="#000000" class="" style="fill:#000000"/><rect x="401.067" y="34.133" width="17.067" height="34.133" data-original="#000000" class="" style="fill:#000000"/><rect x="93.867" y="290.133" width="34.133" height="17.067" data-original="#000000" class="" style="fill:#000000"/><rect x="162.133" y="290.133" width="34.133" height="17.067" data-original="#000000" class="" style="fill:#000000"/><rect x="93.867" y="324.267" width="34.133" height="17.067" data-original="#000000" class="" style="fill:#000000"/><rect x="162.133" y="324.267" width="34.133" height="17.067" data-original="#000000" class="" style="fill:#000000"/></g> </svg>
